<mxfile host="app.diagrams.net" modified="2024-06-01T16:35:15.175Z" agent="Mozilla/5.0 (X11; Ubuntu; Linux x86_64; rv:126.0) Gecko/20100101 Firefox/126.0" version="24.4.13" etag="oUTeWjuIx7ELvQOq-loO" type="github">
  <diagram name="第 1 页" id="c3zfZVSb9_U3AJBu2rIi">
    <mxGraphModel>
      <root>
        <mxCell id="0" />
        <mxCell id="1" parent="0" />
      </root>
    </mxGraphModel>
  </diagram>
</mxfile>
